<!DOCTYPE svg PUBLIC "-//W3C//DTD SVG 1.1//EN" "http://www.w3.org/Graphics/SVG/1.1/DTD/svg11.dtd">
<!-- Uploaded to: SVG Repo, www.svgrepo.com, Transformed by: SVG Repo Mixer Tools -->
<svg fill="#000000" height="123px" width="123px" version="1.1" id="Layer_1" xmlns="http://www.w3.org/2000/svg" xmlns:xlink="http://www.w3.org/1999/xlink" viewBox="0 0 504.439 504.439" xml:space="preserve" transform="matrix(-1, 0, 0, 1, 0, 0)">
<g id="SVGRepo_bgCarrier" stroke-width="0"/>
<g id="SVGRepo_tracerCarrier" stroke-linecap="round" stroke-linejoin="round"/>
<g id="SVGRepo_iconCarrier"> <g> <g> <g> <path d="M200.422,96.951c4.429,3.311,5.538,5.828,5.487,6.792c-0.051,0.922-1.263,2.671-4.523,4.625 c-4.036,2.423-5.359,7.663-2.927,11.699c1.596,2.68,4.42,4.156,7.322,4.156c1.493,0,3.004-0.393,4.378-1.22 c10.103-6.05,12.535-13.338,12.791-18.389c0.273-5.342-1.655-13.38-12.348-21.359c-0.119-0.094-0.273-0.111-0.401-0.196 c-0.137-0.085-0.213-0.23-0.35-0.316c-3.012-1.775-4.156-3.396-4.215-4.241c-0.068-1.033,0.998-3.746,5.495-7.373 c3.669-2.961,4.241-8.337,1.28-11.998c-2.944-3.669-8.32-4.25-11.998-1.289c-10.453,8.439-12.186,16.563-11.802,21.897 C188.961,84.501,191.359,91.294,200.422,96.951z"/> <path d="M302.688,96.951c4.429,3.311,5.538,5.828,5.487,6.792c-0.051,0.922-1.263,2.671-4.523,4.625 c-4.036,2.423-5.359,7.663-2.927,11.699c1.596,2.68,4.42,4.156,7.322,4.156c1.493,0,3.004-0.393,4.378-1.22 c10.104-6.05,12.536-13.338,12.792-18.389c0.273-5.342-1.655-13.38-12.348-21.359c-0.12-0.094-0.273-0.111-0.401-0.196 c-0.137-0.085-0.213-0.23-0.35-0.316c-3.012-1.775-4.156-3.396-4.215-4.241c-0.068-1.033,0.998-3.746,5.495-7.373 c3.669-2.961,4.241-8.337,1.28-11.998c-2.944-3.669-8.32-4.25-11.998-1.289c-10.453,8.439-12.186,16.563-11.802,21.897 C291.228,84.501,293.626,91.294,302.688,96.951z"/> <path d="M214.173,269.288c-4.787,0-8.67,3.883-8.67,8.67c0,4.779,3.883,8.661,8.67,8.661c4.787,0,8.67-3.883,8.67-8.661 C222.843,273.171,218.96,269.288,214.173,269.288z"/> <path d="M256.84,269.288c-4.787,0-8.67,3.883-8.67,8.67c0,4.779,3.883,8.661,8.67,8.661c4.787,0,8.67-3.883,8.67-8.661 C265.51,273.171,261.627,269.288,256.84,269.288z"/> <path d="M299.506,269.288c-4.787,0-8.67,3.883-8.67,8.67c0,4.779,3.883,8.661,8.67,8.661s8.67-3.883,8.67-8.661 C308.176,273.171,304.294,269.288,299.506,269.288z"/> <path d="M461.773,303.421h-59.733v-34.133c0-19.772-15.701-34.133-37.333-34.133h-22.4v-65.067 c0-11.179-9.088-20.267-20.267-20.267h-27.733c-11.179,0-20.267,9.088-20.267,20.267v65.067h-34.133v-65.067 c0-11.179-9.088-20.267-20.267-20.267h-27.733c-11.179,0-20.267,9.088-20.267,20.267v65.067h-22.4 c-21.632,0-37.333,14.362-37.333,34.133v34.133H0l1.024,9.446c0.043,0.435,1.698,14.413,7.262,33.22h299.887 c4.719,0,8.533,3.814,8.533,8.533c0,4.719-3.814,8.533-8.533,8.533H14.063c3.191,8.346,7.134,17.05,11.947,25.6h316.297 c4.719,0,8.533,3.814,8.533,8.533c0,4.719-3.814,8.533-8.533,8.533H37.12c17.937,23.723,44.433,42.667,83.319,42.667h291.422 l-1.135-9.549c-0.026-0.213-2.15-21.325,10.598-35.686c8.542-9.626,22.144-14.498,40.448-14.498 c23.526,0,42.667-19.14,42.667-42.667C504.439,322.561,485.299,303.421,461.773,303.421z M384.973,303.421h-256v-34.133 c0-11.793,10.172-17.067,20.267-17.067h22.4h68.267h34.133h68.267h22.4c10.095,0,20.267,5.274,20.267,17.067V303.421z"/> </g> </g> </g> </g>
</svg>